# xmcd CD database file
#
# Track frame offsets:
#	150
#	25300
#	28278
#	51264
#	73574
#	101707
#	125376
#	169105
#	173352
#	197622
#	221800
#	243784
#	268902
#	291049
#
# Disc length: 4209 seconds
#
# Revision: 0
# Processed by: cddbd v1.5PL3 Copyright (c) Steve Scherf et al.
# Submitted via: CDex 1.40Release
#
DISCID=cc106f0e
DTITLE=Skoop　On　Somebody - Nice'n Slow Jam
DYEAR=1900
DGENRE=Slow Jam
TTITLE0=sha la la
TTITLE1=introduction (voice over Vaughn Harper)
TTITLE2=Nice'n Slow (S.O.S.edition)
TTITLE3=潮騒
TTITLE4=Amanogawa (S.O.S.edition)
TTITLE5=Let it snow
TTITLE6=Everlasting Love (S.O.S.edition)〜Everlasting Love featuring John P.Kee
TTITLE7=interlude (voice over Vaughn Harper)
TTITLE8=Come Back 2 Me (S.O.S.edition)
TTITLE9=if (S.O.S.edition)
TTITLE10=eternal snow (remix)
TTITLE11=月に願いを（S.O.S.edition）
TTITLE12=Bye Bye 〜その日が来るまで〜(Acoustic Version)
TTITLE13=Still (remix)
EXTD=ID3G: 111
EXTT0=
EXTT1=
EXTT2=
EXTT3=
EXTT4=
EXTT5=
EXTT6=
EXTT7=
EXTT8=
EXTT9=
EXTT10=
EXTT11=
EXTT12=
EXTT13=
PLAYORDER=
